<?xml version="1.0" encoding="UTF-8"?>
<svg id="Layer_1" data-name="Layer 1" xmlns="http://www.w3.org/2000/svg" viewBox="0 0 1080 1050">
  <defs>
    <style>
      .cls-1 {
        fill: #fff;
      }
      .cls-2 {
        fill: #373737;
      }
      .cls-3 {
        fill: #111;
      }
    </style>
  </defs>
  <path class="cls-2" d="M920.07,743.86l-6.55-12.06-6.54-12.04-45.14-82.99-2.4-4.42c-5.8,18.94-15.06,47.56-26.82,78.33-1.18,3.11-2.39,6.24-3.64,9.39-20.37,51.76-47.35,107.34-76.48,132.12-15.52,13.2-31.51,18.74-47.56,16.47-6.21-.88-12.21-2.86-18.05-5.79-29.11-14.58-54.25-52.7-82.62-95.7-7.02-10.66-14.3-21.67-21.68-32.37-8.5-12.31-17.09-22.4-25.46-30.68-17.12-16.97-33.22-26.35-45.32-31.5-1.35-.58-2.69-1.11-3.98-1.6-14.99-5.72-25.8-6.14-28.41-6.14-.37.08-.75.16-1.12.23-55.94,11.38-103.11-.38-132.97-12.34-23.14-9.27-39.59-19.96-47.54-25.69-6.09,3.35-12.74,7.1-19.86,11.25-44.56,25.99-107.22,67.62-164.49,123.77-11.52,11.29-22.83,23.16-33.72,35.63-54.47,62.3-60.01,200.42-60.09,252.25h217.3c2.37-29.84,8.53-88.38,23.15-145.52,1.29-5.09,6.48-8.15,11.57-6.86,5.09,1.3,8.17,6.47,6.86,11.56-14.07,54.96-20.11,111.31-22.49,140.82h365.24c-16.52-37.05-46.28-108.85-58.43-170.69-5.79-29.42-7.59-56.59-2.09-76.69,1.79-6.57,6.01-21.96,18.18-20.83,9.65.9,15.18,11.11,21.14,39.02,3.32,15.49,6.68,36.46,10.04,62.39.26,2.04.53,4.12.79,6.22,6.11,48.8,10.1,98.03,10.14,98.53.21,2.62-.66,5.08-2.25,6.93,9,22.73,17.54,42.24,23.39,55.13h196.84c44.53-44.8,67.97-113.21,80-165.06,12.74-54.96,15.46-102.41,15.94-113.72l-14.89-27.37ZM483.27,730.48c-17.49,10.68-37.63,16.06-60.02,16.06-4.66,0-9.41-.24-14.25-.7-21.9-2.11-45.77-8.98-70.91-20.42-42.31-19.25-73.52-44.61-74.82-45.68-4.07-3.33-4.66-9.32-1.33-13.36,3.34-4.06,9.33-4.65,13.4-1.33.48.4,19.86,16.01,47.92,31.54,41.98,23.21,103.4,46.21,150.09,17.7,4.49-2.74,10.35-1.33,13.08,3.14,2.75,4.48,1.33,10.33-3.15,13.05ZM578.22,811.29c-3.49,16.58-2,40.08,4.28,69.63,3.39,15.9,8.16,33.56,14.3,52.82-1.14-10.9-2.44-22.65-3.88-34.52-.76-6.26-1.5-12.13-2.22-17.63-5.1-38.65-9.41-59.31-12.47-70.3Z"/>
  <path class="cls-1" d="M675.48,254.43h0c-5.45-3.25-13.72-7.02-25.35-9.56-2.69-.58-5.43-1.08-8.24-1.49-1.08-13.13-2.97-25.06-5.52-35.89,4.09-1.06,7.11-4.77,7.11-9.19,0-5.24-4.26-9.5-9.52-9.5h-.03c-.99,0-1.98,0-2.97.04-35.6-102.18-138.48-85.32-138.48-85.32-120.49-9.16-146.77,125.5-151.23,156.64-8.27,2.92-13.27,5.17-13.72,5.37-3.13,1.42-5.25,4.41-5.54,7.83-1.57,18,2.42,47.96,17.07,73.62,7.54,151.32-17.51,238.82-27.12,266.17,7.9,5.41,22.18,14.17,41.35,21.78,40.08,15.89,81.44,19.48,122.94,10.66.49-.1.97-.17,1.47-.2.1,0,.29,0,.57-.02v-57.46c9.71,0,19.31-1.06,28.64-3.11h.01c26.25-5.78,50.37-19.43,68.74-39.59,11.39-12.51,20.84-25.55,28.64-38.29,23.23-37.9,33-82.4,29.32-126.55,17.59-4.67,31.32-13.79,40.95-27.25.82-1.15,1.6-2.31,2.34-3.49h0c.81-11.84,1.4-24,1.62-35.95h0c.31-16.32-.08-32.24-1.53-46.39-.46-4.44-.97-8.72-1.55-12.86ZM1058.26,302.36c-2.04-3.76-5.65-6.35-9.9-7.09-1.42-.25-2.87-.42-4.29-.51-1.72,1.21-7.34,6.24-19.02,25.73-8.31,13.86-16.09,29.02-20.75,38.08l-1.03,2c-4.02,7.81-12.59,22.76-21.19,36.24-4.63,7.24-8.59,13-11.79,17.12-3.72,4.8-9.32,12.04-17.37,9.93-3.95-1.03-8.46-4.81-8.19-12.1.23-6.21,2.43-28.41,4.99-54.13,2.89-29.01,6.15-61.91,6.33-69.86.19-8.67-1.76-12.9-13.36-13.38-.62.45-3.22,2.78-6.35,12.08-2.64,7.87-4.6,17.5-6.17,25.25-.91,4.52-1.7,8.42-2.52,11.55-1.04,3.97-1.84,12.41-2.77,22.16-2.19,23.21-5.52,58.3-17.06,92.43-2.66,7.86-4.93,15.74-6.88,23.58h0c15.4-12.93,38.17-27.08,65.86-29.25,5.21-.41,10.36-.55,15.08-.55s9.09.14,12.56.32c.87-2.05,2.58-6.09,5.1-11.89,1.64-3.79,8.11-14.93,20.36-35.95,14.16-24.3,33.55-57.57,38.71-69.23l.2-.47c1.68-3.94,1.47-8.33-.55-12.06ZM966.47,534.97c-.32.02-.81.04-1.43.04-.74,0-1.68-.03-2.76-.12.05.58.19,1.34.51,2.33,1.18,3.64,3.81,6.07,8.03,7.42,8.41,2.7,21.23.21,29.21-5.67,1.24-.92,2.46-1.96,3.66-3.09,3.16-6.05,7.07-13.13,12.54-21.56,5.17-7.97,7.66-14.89,7.21-19.86-26.48,38.51-52.91,40.45-56.97,40.51ZM977.32,486.12c-9.05,5.11-23.91,16.13-23.65,25.13.12,4.22,1.8,5.76,2.35,6.26,2.83,2.58,7.94,2.86,9.67,2.75.32-.02.39-.03.68-.02,1.23-.04,22.19-1.27,44.71-33.87-8.55,1.35-20.82,2.24-33.76-.25ZM966.3,558.67c-8.68-2.78-14.92-8.79-17.55-16.9-1.54-4.74-1.55-8.66-.73-11.81-.62-.45-1.24-.93-1.83-1.47-4.57-4.1-7.09-9.93-7.28-16.83-.6-21.69,30.41-38.08,33.94-39.87,1.54-.78,3.32-1,5-.61,12.18,2.79,24.09,1.8,31.93.48.95-.16,1.86-.44,2.72-.82h0c.21-.31.44-.58.69-.86,2.2-2.37,5.59-6.56,5.69-9.93,0-.01.01-.01.01-.01h0s-.01-.02-.01-.02v-.02c-.21-1.37-.75-2.61-1.51-3.74-.02-.02-.03-.04-.05-.06-3.16-3.82-10.47-7.38-15.98-8.98-.04,0-.08-.02-.12-.03-2.72-.25-17.99-1.51-33.26-.32-17.59,1.38-33.17,8.66-45.64,17.02-12.46,8.36-21.8,17.8-26.91,23.51-3.21,17.8-5.13,34.46-6.74,48.39-1.02,8.83-1.9,16.45-2.91,22.46-1.39,8.34-7.75,29.23-15.49,53.04l51.23,94.21c2.16-10.98,4.99-24.22,8.47-38.03,12.11-48.17,25.27-77.05,40.21-88.29,10.65-8,16.52-14,20.94-20.33,0-.01.01-.01.01-.02-4.2,1.04-8.51,1.58-12.67,1.58s-8.42-.57-12.14-1.76Z"/>
  <path class="cls-3" d="M1075.87,292.83c-4.97-9.16-13.74-15.44-24.03-17.24-2.84-.5-5.7-.79-8.53-.86-11.8-.3-24.38,11.53-56.85,74.72l-1.02,1.99c-4.35,8.43-11.37,20.46-18.03,31.08.7-7.24,1.48-15.11,2.25-22.9,3.07-30.81,6.23-62.68,6.42-71.39.46-20.74-11.56-33.08-32.98-33.84-.26-.01-.52-.01-.77-.01-20.99,0-27.23,30.81-31.81,53.37-.85,4.22-1.59,7.87-2.26,10.45-1.45,5.55-2.24,13.85-3.34,25.35-2.11,22.29-5.3,55.99-16.1,87.93-12.59,37.27-17.1,76.25-20.09,102.05-.98,8.56-1.84,15.94-2.77,21.46-1.08,6.46-5.95,22.73-12.35,42.65-3.06,1.01-5.46,3.48-6.34,6.67-.51,1.85-51.68,185.55-107.48,233.04-11.22,9.55-21.72,13.47-32.1,12-7.05-1-14.11-4.41-21.19-9.66-1.76-126.48-.59-390.99.9-482.73.19-11.96.26-23.35.17-34.29h0c6.06-28.46-.91-56.16-1.32-57.73-.25-.96-.64-1.87-1.17-2.7-4.62-56.34-16.14-103.02-39.14-160.41C611.38,15.63,514.63-1.61,409.24.11c-105.39,1.73-196.96,58.61-226.33,125.84-29.38,67.22-25.92,241.33-27.64,306.83-1.09,41.14-21.94,191.77-37.3,298.12-18.16,16.61-36.07,34.62-53.01,54-30.72,35.13-50.91,94.12-60.01,175.35C.8,997.1,0,1029.84,0,1050h19.62c.08-51.83,5.62-189.96,60.09-252.25,10.89-12.47,22.2-24.34,33.72-35.63,57.27-56.15,119.93-97.78,164.49-123.77,7.11-4.15,13.77-7.9,19.86-11.25,7.96,5.73,24.4,16.42,47.54,25.69,29.87,11.96,77.04,23.71,132.97,12.34.37-.07.75-.15,1.12-.23,2.62,0,13.43.42,28.41,6.14,1.29.49,2.62,1.02,3.98,1.6,12.09,5.15,28.19,14.52,45.32,31.5,8.37,8.28,16.96,18.37,25.46,30.68,7.38,10.7,14.66,21.71,21.68,32.37,28.36,43,53.51,81.12,82.62,95.7,5.84,2.93,11.84,4.91,18.05,5.79,16.05,2.27,32.04-3.27,47.56-16.47,29.13-24.78,56.11-80.36,76.48-132.12,1.24-3.15,2.45-6.28,3.64-9.39,11.76-30.77,21.02-59.39,26.82-78.33l2.4,4.42,45.14,82.99,6.54,12.04,6.55,12.06,14.89,27.37c-.48,11.31-3.2,58.76-15.94,113.72-12.03,51.85-35.47,120.25-80,165.06h26.47c14.12-16.78,26.78-36.64,37.86-59.37,14.3-29.33,26.02-63.54,34.84-101.65,14.95-64.65,16.39-117.6,16.44-119.82.04-1.71-.36-3.4-1.18-4.9l-16.65-30.63c7.36-46.98,25.68-123.59,45.44-138.46,22.46-16.89,28.04-27.96,35.78-43.29,3.71-7.35,7.9-15.69,15.05-26.7,9.78-15.08,12.73-28.46,8.8-39.74-1.66-4.77-4.31-8.4-7.06-11.11,4.99-8.8,4.68-16.17,3.18-21.29-3.2-10.89-13.42-17.64-21.58-21.44.48-1.11.99-2.31,1.55-3.6,1.24-2.87,10.83-19.32,19.29-33.84,15.2-26.07,34.11-58.53,39.73-71.19.11-.26.22-.51.32-.74,4.08-9.57,3.58-20.28-1.39-29.41ZM492.5,103.54s102.89-16.86,138.48,85.32c-36.74.77-64.45,15.75-65.64,16.41-4.61,2.52-6.29,8.3-3.76,12.89,1.73,3.14,4.99,4.92,8.35,4.92,1.55,0,3.13-.38,4.58-1.18.26-.14,26.08-14.09,59.44-14.09h.03c.83,0,1.63-.11,2.4-.31,2.55,10.83,4.44,22.75,5.52,35.89-27.75-4.07-61.64.35-100.86,13.16-2.29.75-4.19,2.33-5.34,4.37,0,0,0,0,0,0-21.09-7.74-37.05-2.36-45.28,2.03-27.6-16.34-63.75-21.29-105.01-14.28-18.16,3.08-33.73,7.83-44.13,11.51,4.46-31.14,30.74-165.79,151.23-156.64ZM481.73,279.89c1.53,10.96,4.33,43.35-11.33,66.8-8.83,13.21-22.46,21.72-40.54,25.27-23.08,4.55-42.61-.15-58.02-13.94-23.49-21.03-31.25-56.26-31.12-77.35,19.79-7.69,90.69-31.54,141.01-.78ZM604.34,506.92c-7.8,12.74-17.25,25.79-28.64,38.29-18.37,20.16-42.49,33.82-68.74,39.59h-.01c-32.74-2.96-62.03-18.3-87.17-45.71-20.92-22.81-30.98-45.86-31.16-46.26-2.05-4.82-7.64-7.07-12.47-5.02-4.84,2.06-7.09,7.63-5.04,12.46.45,1.05,11.18,25.91,34.18,51.16,21.25,23.32,46.04,39.25,73.01,47.15v46.79c-.28.01-.47.02-.57.02-.5.03-.98.1-1.47.2-41.5,8.83-82.87,5.24-122.94-10.66-19.17-7.61-33.44-16.37-41.35-21.78,9.61-27.35,34.67-114.84,27.12-266.17,5.24,9.19,11.84,17.82,20.04,25.16,15.12,13.53,33.68,20.46,54.45,20.46,6.45,0,13.12-.67,19.97-2.02,23.26-4.58,41.02-15.84,52.75-33.48,18.52-27.83,16.42-63.51,14.53-78.16,5.68-2.63,16.79-5.49,31.98,1.3,0,0,0,0,0,0-.82,12.68-.75,30.97,3.85,48.7h0c-6.19-12.39-11.09-23.96-13.9-31.38-1.37-3.61-5.41-5.44-9.04-4.08-3.62,1.36-5.45,5.4-4.09,9.02.33.86,8.12,21.38,20.13,43.52,12.34,22.74,24.44,38.55,36.13,47.23-9.17,5.57-21.8,14.12-29.29,22.91-2.51,2.94-2.15,7.36.8,9.86,1.32,1.12,2.93,1.67,4.54,1.67,1.99,0,3.96-.84,5.35-2.46,10.71-12.57,35.99-25.77,36.24-25.91,2.52-1.31,4-4,3.75-6.82s-2.17-5.21-4.87-6.07c-6.39-2.01-12.98-7.61-19.37-15.16,0,0,0,0,.01,0,11.39,8.42,25.62,12.67,42.49,12.67,2.71,0,5.47-.11,8.31-.33,7.06-.54,13.68-1.63,19.82-3.27,3.69,44.15-6.08,88.66-29.32,126.55ZM659.07,342.14c-9.58,13.33-25.29,20.92-46.69,22.57-19.66,1.51-34.1-3.16-44.18-14.25-19.89-21.91-17.31-62.8-15.59-77.65,45.15-13.94,74.52-13.09,91.43-9.79,13.49,2.63,21.18,7.19,24.41,9.5,2.06,10.28,7.59,46-9.38,69.62ZM1016.22,514.32c-5.47,8.43-9.39,15.51-12.54,21.56-1.19,1.13-2.41,2.17-3.66,3.09-7.98,5.88-20.8,8.37-29.21,5.67-4.22-1.35-6.84-3.78-8.03-7.42-.32-.99-.46-1.75-.51-2.33,1.07.09,2.01.12,2.76.12.62,0,1.11-.02,1.43-.04,4.06-.06,30.49-2,56.97-40.51.45,4.97-2.04,11.9-7.21,19.86ZM956.02,517.51c-.55-.5-2.23-2.04-2.35-6.26-.25-9,14.61-20.02,23.65-25.13,12.94,2.49,25.22,1.6,33.76.25-22.52,32.6-43.48,33.83-44.71,33.87-.29-.01-.36,0-.68.02-1.73.11-6.84-.17-9.67-2.75ZM1017.31,456.2s.03.04.05.06c.76,1.13,1.3,2.37,1.51,3.74v.02s0,0,.01,0h0s-.01.01-.01.02c-.1,3.37-3.49,7.56-5.69,9.93-.25.28-.48.55-.69.85h0c-.85.39-1.76.67-2.72.83-7.84,1.32-19.75,2.31-31.93-.48-1.68-.39-3.46-.17-5,.61-3.54,1.8-34.55,18.18-33.94,39.87.19,6.91,2.72,12.73,7.28,16.83.59.54,1.21,1.02,1.83,1.47-.82,3.15-.81,7.07.73,11.81,2.64,8.12,8.88,14.12,17.55,16.9,3.73,1.19,7.85,1.76,12.14,1.76s8.48-.54,12.67-1.58c0,0-.01,0-.01.02-4.42,6.33-10.29,12.34-20.94,20.33-14.94,11.24-28.09,40.11-40.21,88.29-3.48,13.8-6.3,27.05-8.47,38.03l-51.23-94.21c7.73-23.81,14.1-44.7,15.49-53.04,1-6.01,1.88-13.63,2.91-22.46,1.61-13.93,3.54-30.59,6.74-48.39,5.11-5.71,14.45-15.15,26.91-23.51,12.46-8.37,28.04-15.64,45.64-17.02,15.27-1.19,30.55.07,33.26.32.04.01.08.02.12.03,5.51,1.6,12.82,5.16,15.98,8.98ZM1058.81,314.42l-.2.47c-5.16,11.67-24.56,44.93-38.71,69.23-12.25,21.01-18.72,32.16-20.36,35.95-2.51,5.8-4.23,9.84-5.1,11.89-3.48-.18-7.79-.32-12.56-.32s-9.87.14-15.08.55c-27.68,2.17-50.46,16.31-65.86,29.26h0c1.95-7.85,4.23-15.73,6.88-23.59,11.54-34.14,14.87-69.22,17.06-92.43.92-9.76,1.72-18.19,2.77-22.16.82-3.13,1.61-7.03,2.52-11.55,1.57-7.75,3.53-17.38,6.17-25.25,3.14-9.3,5.73-11.63,6.35-12.08,11.59.48,13.55,4.72,13.36,13.38-.18,7.96-3.45,40.85-6.33,69.86-2.55,25.72-4.76,47.92-4.99,54.13-.27,7.29,4.24,11.07,8.19,12.1,8.06,2.11,13.66-5.13,17.37-9.93,3.21-4.12,7.16-9.89,11.79-17.12,8.6-13.47,17.17-28.43,21.19-36.24l1.03-2c4.66-9.06,12.44-24.21,20.75-38.08,11.67-19.49,17.29-24.52,19.02-25.73,1.42.09,2.87.26,4.29.51,4.25.74,7.85,3.33,9.9,7.09,2.02,3.73,2.23,8.12.55,12.06ZM556.82,465.63c-47.92,19.12-86.92.43-87.3.24-3.62-1.79-8.02-.33-9.83,3.28-1.81,3.62-.34,8.02,3.28,9.83,1.2.6,20.56,10.01,49.27,10.01,14.64,0,31.71-2.45,50.04-9.76,3.77-1.5,5.6-5.77,4.09-9.52-1.51-3.76-5.78-5.58-9.54-4.08ZM461.4,228.93c1.52.9,3.19,1.33,4.84,1.33,3.25,0,6.42-1.66,8.2-4.66,2.68-4.51,1.19-10.34-3.34-13.01-50.62-29.93-93.83-8.09-95.64-7.14-4.66,2.43-6.47,8.16-4.04,12.81,2.43,4.65,8.18,6.45,12.84,4.03.35-.18,35.52-17.95,77.13,6.65ZM621.33,289.71c-10.99,0-19.9,8.89-19.9,19.86s8.91,19.86,19.9,19.86,19.9-8.89,19.9-19.86-8.91-19.86-19.9-19.86ZM442.96,329.43c10.99,0,19.9-8.89,19.9-19.86s-8.91-19.86-19.9-19.86-19.9,8.89-19.9,19.86,8.91,19.86,19.9,19.86ZM271.65,897.62c-5.09-1.29-10.28,1.77-11.57,6.86-14.63,57.15-20.78,115.68-23.15,145.52h19.1c2.38-29.52,8.43-85.87,22.49-140.82,1.3-5.09-1.77-10.26-6.86-11.56ZM621.03,987.94c-.04-.5-4.03-49.73-10.14-98.53-.26-2.1-.53-4.18-.79-6.22-3.36-25.93-6.72-46.89-10.04-62.39-5.96-27.92-11.49-38.13-21.14-39.02-12.17-1.13-16.39,14.26-18.18,20.83-5.5,20.1-3.7,47.27,2.09,76.69,12.15,61.85,41.91,133.65,58.43,170.69h20.91c-5.85-12.88-14.4-32.4-23.39-55.13,1.59-1.85,2.46-4.31,2.25-6.93ZM582.5,880.93c-6.28-29.55-7.76-53.05-4.28-69.63,3.07,11,7.37,31.65,12.47,70.3.72,5.51,1.46,11.38,2.22,17.63,1.43,11.87,2.74,23.62,3.88,34.52-6.14-19.26-10.91-36.92-14.3-52.82ZM473.33,714.28c-46.69,28.51-108.11,5.51-150.09-17.7-28.06-15.52-47.44-31.14-47.92-31.54-4.07-3.32-10.06-2.73-13.4,1.33-3.33,4.05-2.74,10.04,1.33,13.36,1.3,1.07,32.51,26.43,74.82,45.68,25.15,11.45,49.01,18.31,70.91,20.42,4.84.46,9.59.7,14.25.7,22.39,0,42.53-5.39,60.02-16.06,4.48-2.73,5.89-8.58,3.15-13.05-2.74-4.47-8.6-5.88-13.08-3.14Z"/>
</svg>